<svg xmlns="http://www.w3.org/2000/svg" width="24" height="24" viewBox="0 0 24 24"><g><g><path fill="#fff" d="M24 12c0 6.654-5.346 12-12 12-6.655 0-12-5.346-12-12C0 5.345 5.345 0 12 0c6.654 0 12 5.345 12 12zm-5.073-4.473l-.763-.764a.527.527 0 0 0-.764 0h-.055l-7.309 7.582a.264.264 0 0 1-.381 0l-3-3.218-.055-.054a.527.527 0 0 0-.764 0l-.763.763a.589.589 0 0 0-.164.382.59.59 0 0 0 .164.382l.109.109 4.254 4.582c.055.109.219.163.382.163a.495.495 0 0 0 .382-.163l8.727-9.055c.218-.218.218-.545 0-.709z"/></g></g></svg>