<svg xmlns="http://www.w3.org/2000/svg" width="79" height="61" viewBox="0 0 79 61"><g><g><path fill="#f26522" d="M78.784 42.899v16.47c0 .9-.738 1.63-1.648 1.63H1.864a1.64 1.64 0 0 1-1.648-1.63V42.9c0-.512.243-.994.655-1.302l12.459-9.293v-3.732c0-.512.243-.994.656-1.302L38.508 8.977a1.663 1.663 0 0 1 1.984 0L65.014 27.27c.413.308.656.79.656 1.302v3.732l12.458 9.293c.413.308.656.79.656 1.302zM41.282 49.52h-3.564v8.218h3.564zm21.092 8.218V29.384L39.5 12.32 16.626 29.384v28.355h17.796V47.89c0-.9.738-1.63 1.648-1.63h6.86c.91 0 1.648.73 1.648 1.63v9.848zm-58.862 0h9.818V36.387l-9.818 7.324zM75.488 43.71l-9.818-7.324V57.74h9.818zM.548 30.796a1.619 1.619 0 0 1 .323-2.283L38.508.438a1.663 1.663 0 0 1 1.984 0l37.636 28.075c.727.542.872 1.564.324 2.283a1.651 1.651 0 0 1-1.317.649c-.346 0-.694-.107-.991-.33L39.5 3.782 2.856 31.116a1.66 1.66 0 0 1-2.308-.32z"/></g><g><g><text dominant-baseline="text-before-edge" style="line-height:26px" fill="#f26522" font-family="'Roboto','Roboto-Bold'" font-size="22" font-style="none" font-weight="700" transform="translate(33 24)"><tspan style="font-kerning:normal">?</tspan></text></g></g></g></svg>