<svg 
 xmlns="http://www.w3.org/2000/svg"
 xmlns:xlink="http://www.w3.org/1999/xlink"
 width="136px" height="136px">
<defs>
<filter filterUnits="userSpaceOnUse" id="Filter_0" x="0px" y="0px" width="136px" height="136px"  >
    <feOffset in="SourceAlpha" dx="0" dy="0" />
    <feGaussianBlur result="blurOut" stdDeviation="2.449" />
    <feFlood flood-color="rgb(64, 199, 255)" result="floodOut" />
    <feComposite operator="atop" in="floodOut" in2="blurOut" />
    <feComponentTransfer><feFuncA type="linear" slope="0.32"/></feComponentTransfer>
    <feMerge>
    <feMergeNode/>
    <feMergeNode in="SourceGraphic"/>
  </feMerge>
</filter>

</defs>
<g filter="url(#Filter_0)">
<path fill-rule="evenodd"  fill="rgb(255, 255, 255)"
 d="M67.500,5.000 C102.018,5.000 130.000,32.982 130.000,67.499 C130.000,102.017 102.018,130.000 67.500,130.000 C32.982,130.000 5.000,102.017 5.000,67.499 C5.000,32.982 32.982,5.000 67.500,5.000 Z"/>
</g>
<path fill-rule="evenodd"  fill="rgb(242, 101, 34)"
 d="M100.494,88.751 C96.375,93.344 85.018,102.618 68.567,102.618 L49.472,102.618 C46.831,102.618 44.243,101.479 42.573,100.552 C42.573,100.552 42.068,100.184 41.701,100.002 L41.701,103.000 L32.000,103.000 L32.000,74.782 L41.701,74.782 L41.701,77.503 C43.320,76.455 45.240,75.876 47.191,75.876 L67.978,75.858 C73.801,75.884 78.012,79.881 77.990,85.198 C77.986,86.148 77.841,86.820 77.619,87.381 C80.102,86.900 83.160,85.631 85.600,82.497 C88.313,78.673 91.506,77.869 93.710,77.869 C96.315,77.869 98.639,78.992 99.839,79.953 C101.554,81.327 102.722,82.570 102.853,84.168 C103.000,85.956 101.725,87.377 100.494,88.751 ZM38.452,77.602 L35.061,77.602 L35.061,81.015 L38.451,81.015 L38.452,81.015 L38.452,77.602 ZM97.726,82.621 C97.148,82.158 95.563,81.280 93.710,81.280 C91.657,81.280 89.851,82.365 88.341,84.504 C88.327,84.524 88.311,84.545 88.297,84.565 C83.756,90.427 77.365,91.031 74.828,91.031 L73.927,91.033 L57.761,91.033 C56.825,91.033 56.066,90.270 56.066,89.328 C56.066,88.386 56.825,87.622 57.761,87.622 L72.992,87.622 C73.074,87.602 74.598,87.483 74.598,85.183 C74.616,81.200 71.277,79.283 67.962,79.269 L47.183,79.287 C45.718,79.287 44.273,79.774 43.119,80.656 L42.748,80.937 C42.442,81.172 42.072,81.278 41.701,81.272 L41.701,96.308 C41.709,96.308 41.718,96.306 41.725,96.306 C42.083,96.306 42.437,96.419 42.734,96.639 C42.766,96.664 46.243,99.205 49.472,99.205 L68.567,99.205 C83.657,99.205 94.161,90.721 97.976,86.465 C98.387,86.007 99.478,84.790 99.474,84.447 C99.472,84.430 99.424,83.983 97.726,82.621 ZM66.739,72.809 L66.739,70.090 C65.126,69.960 63.513,69.476 62.518,68.809 L62.188,68.587 L63.236,64.918 L63.841,65.278 C65.066,66.005 66.531,66.421 67.861,66.421 C69.304,66.421 70.237,65.776 70.237,64.779 C70.237,64.097 69.916,63.348 67.592,62.494 C65.060,61.572 62.470,60.200 62.470,57.019 C62.470,54.458 64.157,52.515 66.905,51.862 L66.905,49.045 L70.250,49.045 L70.250,51.650 C71.549,51.748 72.671,52.052 73.750,52.594 L74.157,52.799 L73.108,56.394 L72.380,56.058 C71.728,55.751 70.633,55.239 69.017,55.239 C67.720,55.239 66.945,55.758 66.945,56.631 C66.945,57.391 67.671,57.928 69.936,58.839 C73.298,60.108 74.740,61.794 74.740,64.474 C74.740,67.147 72.927,69.219 70.084,69.859 L70.084,72.809 L66.739,72.809 ZM88.583,50.390 L88.583,74.984 C88.180,75.370 87.776,75.754 87.364,76.135 C86.170,77.237 84.934,78.289 83.687,79.327 L83.687,47.317 L69.080,36.997 L54.139,47.332 L54.139,73.358 L49.244,73.358 L49.244,50.656 L46.910,52.264 L44.145,48.200 L50.559,43.782 L50.559,35.685 L56.719,35.685 L56.719,39.538 L67.709,31.969 L69.110,31.000 L70.483,31.970 L94.269,48.337 L91.505,52.402 L88.583,50.390 Z"/>
</svg>