<svg 
 xmlns="http://www.w3.org/2000/svg"
 xmlns:xlink="http://www.w3.org/1999/xlink"
 width="136px" height="136px">
<defs>
<filter filterUnits="userSpaceOnUse" id="Filter_0" x="0px" y="0px" width="136px" height="136px"  >
    <feOffset in="SourceAlpha" dx="0" dy="0" />
    <feGaussianBlur result="blurOut" stdDeviation="2.449" />
    <feFlood flood-color="rgb(64, 199, 255)" result="floodOut" />
    <feComposite operator="atop" in="floodOut" in2="blurOut" />
    <feComponentTransfer><feFuncA type="linear" slope="0.32"/></feComponentTransfer>
    <feMerge>
    <feMergeNode/>
    <feMergeNode in="SourceGraphic"/>
  </feMerge>
</filter>

</defs>
<g filter="url(#Filter_0)">
<path fill-rule="evenodd"  fill="rgb(255, 255, 255)"
 d="M67.500,5.000 C102.018,5.000 130.000,32.982 130.000,67.499 C130.000,102.017 102.018,130.000 67.500,130.000 C32.982,130.000 5.000,102.017 5.000,67.499 C5.000,32.982 32.982,5.000 67.500,5.000 Z"/>
</g>
<path fill-rule="evenodd"  fill="rgb(242, 101, 34)"
 d="M41.248,68.061 L67.500,44.550 L93.754,68.061 C94.101,68.371 94.526,68.523 94.955,68.523 C95.467,68.523 95.974,68.301 96.335,67.873 C97.000,67.082 96.914,65.891 96.156,65.202 L68.701,40.617 C68.013,40.000 66.991,40.000 66.303,40.617 L56.519,49.376 L56.519,45.828 C56.519,43.741 54.878,42.046 52.858,42.046 C50.839,42.046 49.198,43.741 49.198,45.828 L49.198,55.931 L38.846,65.202 C38.084,65.887 38.000,67.082 38.663,67.873 C39.330,68.659 40.483,68.744 41.248,68.061 ZM60.179,76.088 L74.823,76.088 L74.823,95.000 L85.804,95.000 C87.820,95.000 89.465,93.304 89.465,91.217 L89.465,72.682 C89.465,71.544 88.971,70.473 88.120,69.757 L69.818,54.252 C69.148,53.681 68.324,53.393 67.500,53.393 C66.676,53.393 65.852,53.681 65.180,54.252 L46.878,69.757 C46.027,70.473 45.537,71.544 45.537,72.682 L45.537,91.217 C45.537,93.304 47.178,95.000 49.198,95.000 L60.179,95.000 L60.179,76.088 Z"/>
</svg>