<svg 
 xmlns="http://www.w3.org/2000/svg"
 xmlns:xlink="http://www.w3.org/1999/xlink"
 width="136px" height="136px">
<defs>
<filter filterUnits="userSpaceOnUse" id="Filter_0" x="0px" y="0px" width="136px" height="136px"  >
    <feOffset in="SourceAlpha" dx="0" dy="0" />
    <feGaussianBlur result="blurOut" stdDeviation="2.449" />
    <feFlood flood-color="rgb(64, 199, 255)" result="floodOut" />
    <feComposite operator="atop" in="floodOut" in2="blurOut" />
    <feComponentTransfer><feFuncA type="linear" slope="0.32"/></feComponentTransfer>
    <feMerge>
    <feMergeNode/>
    <feMergeNode in="SourceGraphic"/>
  </feMerge>
</filter>

</defs>
<g filter="url(#Filter_0)">
<path fill-rule="evenodd"  fill="rgb(255, 255, 255)"
 d="M67.500,5.000 C102.018,5.000 130.000,32.982 130.000,67.499 C130.000,102.017 102.018,130.000 67.500,130.000 C32.982,130.000 5.000,102.017 5.000,67.499 C5.000,32.982 32.982,5.000 67.500,5.000 Z"/>
</g>
<path fill-rule="evenodd"  fill="rgb(242, 101, 34)"
 d="M105.136,98.000 L92.022,98.000 L78.908,98.000 L56.092,98.000 L42.978,98.000 L29.864,98.000 C28.954,98.000 28.216,97.270 28.216,96.369 L28.216,79.899 C28.216,79.387 28.459,78.905 28.871,78.597 L41.330,69.304 L41.330,65.572 C41.330,65.060 41.573,64.578 41.986,64.270 L66.508,45.977 C67.095,45.539 67.905,45.539 68.492,45.977 L93.014,64.270 C93.427,64.578 93.670,65.060 93.670,65.572 L93.670,69.304 L106.128,78.597 C106.541,78.905 106.784,79.387 106.784,79.899 L106.784,96.369 C106.784,97.270 106.046,98.000 105.136,98.000 ZM41.330,73.387 L31.512,80.711 L31.512,94.739 L41.330,94.739 L41.330,73.387 ZM65.718,94.739 L69.282,94.739 L69.282,86.521 L65.718,86.521 L65.718,94.739 ZM90.374,66.384 L67.500,49.321 L44.626,66.384 L44.626,94.739 L54.444,94.739 L62.422,94.739 L62.422,84.891 C62.422,83.991 63.160,83.261 64.070,83.261 L70.930,83.261 C71.840,83.261 72.578,83.991 72.578,84.891 L72.578,94.739 L80.556,94.739 L90.374,94.739 L90.374,66.384 ZM103.488,80.711 L93.670,73.387 L93.670,94.739 L103.488,94.739 L103.488,80.711 ZM105.135,68.445 C104.789,68.445 104.441,68.338 104.144,68.116 L67.500,40.781 L30.856,68.116 C30.130,68.658 29.096,68.515 28.548,67.796 C28.000,67.077 28.145,66.055 28.871,65.513 L66.508,37.438 C67.095,37.000 67.905,37.000 68.492,37.438 L106.128,65.513 C106.855,66.055 107.000,67.077 106.452,67.796 C106.128,68.221 105.634,68.445 105.135,68.445 Z"/>
<text font-family="Roboto" fill="rgb(242, 101, 34)" font-weight="bold" font-size="22px" x="61px" y="77px">&#63;</text>
</svg>